<svg class="ldi-i74pea" width="200px"  height="200px"  xmlns="http://www.w3.org/2000/svg" xmlns:xlink="http://www.w3.org/1999/xlink" viewBox="0 0 100 100" preserveAspectRatio="xMidYMid" style="background: none;"><!--?xml version="1.0" encoding="utf-8"?--><!--Generator: Adobe Illustrator 21.0.0, SVG Export Plug-In . SVG Version: 6.00 Build 0)--><svg version="1.1" id="Layer_1" xmlns="http://www.w3.org/2000/svg" xmlns:xlink="http://www.w3.org/1999/xlink" x="0px" y="0px" viewBox="0 0 100 100" style="transform-origin: 50px 50px 0px;" xml:space="preserve"><g style="transform-origin: 50px 50px 0px;"><g style="transform-origin: 50px 50px 0px; transform: scale(0.6);"><g style="transform-origin: 50px 50px 0px;"><g><style type="text/css" class="ld ld-fade" style="transform-origin: 50px 50px 0px; animation-duration: 1s; animation-delay: -1s; animation-direction: normal;">.st0{fill:#F4E6C8;} .st1{opacity:0.8;fill:#849B87;} .st2{fill:#D65A62;} .st3{fill:#E15C64;} .st4{fill:#F47E5F;} .st5{fill:#F7B26A;} .st6{fill:#FEE8A2;} .st7{fill:#ACBD81;} .st8{fill:#F5E169;} .st9{fill:#F0AF6B;} .st10{fill:#EA7C60;} .st11{fill:#A8B980;} .st12{fill:#829985;} .st13{fill:#798AAE;} .st14{fill:#8672A7;} .st15{fill:#CC5960;} .st16{fill:#E17A5F;} .st17{fill:#849B87;} .st18{opacity:0.8;fill:#E15C64;} .st19{opacity:0.8;fill:#F7B26A;} .st20{fill:#79A5B5;} .st21{opacity:0.8;fill:#79A5B4;} .st22{fill:#666766;}</style><g style="transform-origin: 50px 50px 0px;"><g><g class="ld ld-fade" style="transform-origin: 50px 50px 0px; animation-duration: 1s; animation-delay: -0.96s; animation-direction: normal;"><path class="st4" d="M48.2,22.7c10.4-6,22.4-6.9,33-3.5c-10.4-6.3-23.9-6.9-35.3-0.4S28.4,37.3,28.7,49.5 C31,38.6,37.8,28.7,48.2,22.7z" fill="rgb(244, 126, 95)" style="fill: rgb(244, 126, 95);"></path></g><g class="ld ld-fade" style="transform-origin: 50px 50px 0px; animation-duration: 1s; animation-delay: -0.92s; animation-direction: normal;"><path class="st4" d="M22.7,51.8c-6-10.4-6.9-22.4-3.5-33c-6.3,10.4-6.9,23.9-0.4,35.3s18.5,17.6,30.8,17.3 C38.6,69,28.7,62.2,22.7,51.8z" fill="rgb(244, 126, 95)" style="fill: rgb(244, 126, 95);"></path></g><g class="ld ld-fade" style="transform-origin: 50px 50px 0px; animation-duration: 1s; animation-delay: -0.88s; animation-direction: normal;"><path class="st4" d="M51.8,77.3c-10.4,6-22.4,6.9-33,3.5c10.4,6.3,23.9,6.9,35.3,0.4s17.6-18.5,17.3-30.8 C69,61.4,62.2,71.3,51.8,77.3z" fill="rgb(244, 126, 95)" style="fill: rgb(244, 126, 95);"></path></g><g class="ld ld-fade" style="transform-origin: 50px 50px 0px; animation-duration: 1s; animation-delay: -0.84s; animation-direction: normal;"><path class="st4" d="M77.3,48.2c6,10.4,6.9,22.4,3.5,33c6.3-10.4,6.9-23.9,0.4-35.3S62.7,28.4,50.5,28.7 C61.4,31,71.3,37.8,77.3,48.2z" fill="rgb(244, 126, 95)" style="fill: rgb(244, 126, 95);"></path></g></g></g><g style="transform-origin: 50px 50px 0px;"><g><g class="ld ld-fade" style="transform-origin: 50px 50px 0px; animation-duration: 1s; animation-delay: -0.8s; animation-direction: normal;"><path class="st5" d="M34.8,27.2c6-10.4,15.9-17.2,26.9-19.5c-12.2-0.3-24.2,6-30.8,17.3S25,49.8,31.3,60.2 C27.9,49.6,28.8,37.6,34.8,27.2z" fill="rgb(247, 178, 106)" style="fill: rgb(247, 178, 106);"></path></g><g class="ld ld-fade" style="transform-origin: 50px 50px 0px; animation-duration: 1s; animation-delay: -0.76s; animation-direction: normal;"><path class="st5" d="M27.2,65.2C16.8,59.2,10,49.2,7.7,38.3c-0.3,12.2,6,24.2,17.3,30.8s24.8,5.9,35.3-0.4 C49.6,72.1,37.6,71.2,27.2,65.2z" fill="rgb(247, 178, 106)" style="fill: rgb(247, 178, 106);"></path></g><g class="ld ld-fade" style="transform-origin: 50px 50px 0px; animation-duration: 1s; animation-delay: -0.72s; animation-direction: normal;"><path class="st5" d="M65.2,72.8c-6,10.4-15.9,17.2-26.9,19.5c12.2,0.3,24.2-6,30.8-17.3s5.9-24.8-0.4-35.3 C72.1,50.4,71.2,62.4,65.2,72.8z" fill="rgb(247, 178, 106)" style="fill: rgb(247, 178, 106);"></path></g><g class="ld ld-fade" style="transform-origin: 50px 50px 0px; animation-duration: 1s; animation-delay: -0.68s; animation-direction: normal;"><path class="st5" d="M72.8,34.8c10.4,6,17.2,15.9,19.5,26.9c0.3-12.2-6-24.2-17.3-30.8S50.2,25,39.8,31.3 C50.4,27.9,62.4,28.8,72.8,34.8z" fill="rgb(247, 178, 106)" style="fill: rgb(247, 178, 106);"></path></g></g></g><g style="transform-origin: 50px 50px 0px;"><g><g class="ld ld-fade" style="transform-origin: 50px 50px 0px; animation-duration: 1s; animation-delay: -0.64s; animation-direction: normal;"><path class="st3" d="M25.4,37.8c0-12,5.2-22.9,13.5-30.3c-10.7,5.9-18,17.3-18,30.3s7.3,24.5,18,30.3 C30.7,60.7,25.4,49.9,25.4,37.8z" fill="rgb(225, 92, 100)" style="fill: rgb(225, 92, 100);"></path></g><g class="ld ld-fade" style="transform-origin: 50px 50px 0px; animation-duration: 1s; animation-delay: -0.6s; animation-direction: normal;"><path class="st3" d="M37.8,74.6c-12,0-22.9-5.2-30.3-13.5c5.9,10.7,17.3,18,30.3,18s24.5-7.3,30.3-18 C60.7,69.3,49.9,74.6,37.8,74.6z" fill="rgb(225, 92, 100)" style="fill: rgb(225, 92, 100);"></path></g><g class="ld ld-fade" style="transform-origin: 50px 50px 0px; animation-duration: 1s; animation-delay: -0.56s; animation-direction: normal;"><path class="st3" d="M74.6,62.2c0,12-5.2,22.9-13.5,30.3c10.7-5.9,18-17.3,18-30.3s-7.3-24.5-18-30.3 C69.3,39.3,74.6,50.1,74.6,62.2z" fill="rgb(225, 92, 100)" style="fill: rgb(225, 92, 100);"></path></g><g class="ld ld-fade" style="transform-origin: 50px 50px 0px; animation-duration: 1s; animation-delay: -0.52s; animation-direction: normal;"><path class="st3" d="M62.2,25.4c12,0,22.9,5.2,30.3,13.5c-5.9-10.7-17.3-18-30.3-18s-24.5,7.3-30.3,18 C39.3,30.7,50.1,25.4,62.2,25.4z" fill="rgb(225, 92, 100)" style="fill: rgb(225, 92, 100);"></path></g></g></g><metadata xmlns:d="https://loading.io/stock/" class="ld ld-fade" style="transform-origin: 50px 50px 0px; animation-duration: 1s; animation-delay: -0.48s; animation-direction: normal;">
<d:name class="ld ld-fade" style="transform-origin: 50px 50px 0px; animation-duration: 1s; animation-delay: -0.44s; animation-direction: normal;">vortex</d:name>
<d:tags class="ld ld-fade" style="transform-origin: 50px 50px 0px; animation-duration: 1s; animation-delay: -0.4s; animation-direction: normal;">wheel,whirl,typhoon,cyclone,tornado,galaxy,rotate,vortex,spinner</d:tags>
<d:license class="ld ld-fade" style="transform-origin: 50px 50px 0px; animation-duration: 1s; animation-delay: -0.36s; animation-direction: normal;">rf</d:license>
<d:slug class="ld ld-fade" style="transform-origin: 50px 50px 0px; animation-duration: 1s; animation-delay: -0.32s; animation-direction: normal;">i74pea</d:slug>
</metadata></g></g></g></g><style type="text/css" class="ld ld-fade" style="transform-origin: 50px 50px 0px; animation-duration: 1s; animation-delay: -0.28s; animation-direction: normal;">path,ellipse,circle,rect,polygon,polyline,line { stroke-width: 0; }@keyframes ld-fade {
  0% {
    opacity: 1;
  }
  100% {
    opacity: 0;
  }
}
@-webkit-keyframes ld-fade {
  0% {
    opacity: 1;
  }
  100% {
    opacity: 0;
  }
}
.ld.ld-fade {
  -webkit-animation: ld-fade 1s infinite linear;
  animation: ld-fade 1s infinite linear;
}
</style></svg></svg>